<?xml version="1.0" standalone="no"?><!DOCTYPE svg PUBLIC "-//W3C//DTD SVG 1.1//EN" "http://www.w3.org/Graphics/SVG/1.1/DTD/svg11.dtd"><svg t="1480739343460" class="icon" style="" viewBox="0 0 1024 1024" version="1.1" xmlns="http://www.w3.org/2000/svg" p-id="2574" xmlns:xlink="http://www.w3.org/1999/xlink" width="200" height="200"><defs><style type="text/css"></style></defs><path d="M844.229671 1024H179.770329A99.52243 99.52243 0 0 1 80.364557 924.594228v-88.426937a25.924051 25.924051 0 0 1 51.848101 0v88.426937A47.609519 47.609519 0 0 0 179.770329 972.151899h664.459342A47.609519 47.609519 0 0 0 891.787342 924.594228V99.405772A47.609519 47.609519 0 0 0 844.229671 51.848101H179.770329A47.609519 47.609519 0 0 0 132.212658 99.405772v567.16638a25.924051 25.924051 0 0 1-51.848101 0V99.405772A99.52243 99.52243 0 0 1 179.770329 0h664.459342A99.52243 99.52243 0 0 1 943.635443 99.405772v825.188456A99.52243 99.52243 0 0 1 844.229671 1024z" p-id="2575" fill="#73AFE1"></path><path d="M753.093671 298.126582H269.610127a25.924051 25.924051 0 0 1 0-51.848101h483.483544a25.924051 25.924051 0 0 1 0 51.848101zM506.81519 456.263291H269.610127a25.924051 25.924051 0 0 1 0-51.848101h237.205063a25.924051 25.924051 0 0 1 0 51.848101zM672.729114 768.648101h-0.103696a12.962025 12.962025 0 0 1-9.630785-4.407088l-75.179747-85.549367a12.962025 12.962025 0 0 1 19.443038-17.122836L672.89762 736.243038l68.024709-74.81681a12.962025 12.962025 0 0 1 19.183798 17.433924l-77.772152 85.549367A12.962025 12.962025 0 0 1 672.729114 768.648101z" p-id="2576" fill="#73AFE1"></path><path d="M737.539241 768.648101h-127.027849a12.962025 12.962025 0 1 1 0-25.92405h127.027849a12.962025 12.962025 0 0 1 0 25.92405zM737.539241 833.458228h-127.027849a12.962025 12.962025 0 0 1 0-25.924051h127.027849a12.962025 12.962025 0 0 1 0 25.924051z" p-id="2577" fill="#73AFE1"></path><path d="M674.025316 882.713924a12.962025 12.962025 0 0 1-12.962025-12.962025v-111.473418a12.962025 12.962025 0 0 1 25.924051 0v111.473418a12.962025 12.962025 0 0 1-12.962026 12.962025z" p-id="2578" fill="#73AFE1"></path></svg>