<?xml version="1.0" standalone="no"?><!DOCTYPE svg PUBLIC "-//W3C//DTD SVG 1.1//EN" "http://www.w3.org/Graphics/SVG/1.1/DTD/svg11.dtd"><svg t="1480746147165" class="icon" style="" viewBox="0 0 1024 1024" version="1.1" xmlns="http://www.w3.org/2000/svg" p-id="8842" xmlns:xlink="http://www.w3.org/1999/xlink" width="200" height="200"><defs><style type="text/css"></style></defs><path d="M344.177783 678.955476l218.158648 0L562.336432 343.891258l-218.158648 0L344.177783 678.955476zM469.61875 390.107859l62.707181 0 0 45.318138-62.707181 0L469.61875 390.107859zM469.61875 466.544739l62.707181 0 0 45.318138-62.707181 0L469.61875 466.544739zM469.61875 542.080086l62.707181 0 0 45.318138-62.707181 0L469.61875 542.080086zM375.981117 390.107859l62.707181 0 0 45.318138-62.707181 0L375.981117 390.107859zM375.981117 466.544739l62.707181 0 0 45.318138-62.707181 0L375.981117 466.544739zM375.981117 542.080086l62.707181 0 0 45.318138-62.707181 0L375.981117 542.080086z" p-id="8843" fill="#73AFE1"></path><path d="M594.138742 678.955476l93.614098 0L687.75284 435.424974l-93.614098 0L594.138742 678.955476zM625.045659 466.544739l30.90487 0 0 45.318138-30.90487 0L625.045659 466.544739zM625.045659 542.080086l30.90487 0 0 45.318138-30.90487 0L625.045659 542.080086z" p-id="8844" fill="#73AFE1"></path><path d="M512 67.750033c-245.351987 0-444.249967 198.896956-444.249967 444.249967s198.896956 444.248943 444.249967 444.248943S956.248943 757.351987 956.248943 512 757.351987 67.750033 512 67.750033zM734.124983 709.174732 297.807686 709.174732l0-30.219255 15.465227 0L313.272913 313.674049l280.865829 0 0 91.533716 124.519991 0 0 273.747711 15.465227 0L734.12396 709.174732z" p-id="8845" fill="#73AFE1"></path></svg>