<?xml version="1.0" standalone="no"?><!DOCTYPE svg PUBLIC "-//W3C//DTD SVG 1.1//EN" "http://www.w3.org/Graphics/SVG/1.1/DTD/svg11.dtd"><svg t="1480666258368" class="icon" style="" viewBox="0 0 1024 1024" version="1.1" xmlns="http://www.w3.org/2000/svg" p-id="4295" xmlns:xlink="http://www.w3.org/1999/xlink" width="200" height="200"><defs><style type="text/css"></style></defs><path d="M1021.866667 300C1024 290.4 1023.2 280.533333 1016.533333 272.533333 1015.466667 271.466667 1013.333333 271.733333 1012 270.4 1000.8 244.533333 981.066667 226.666667 944 226.666667L112 226.666667c-39.466667 0-82.133333 15.2-101.333333 44.533333C9.866667 272 8.533333 272 7.733333 272.533333 1.066667 280.533333 0 290.4 1.866667 299.733333 1.6 302.133333 0 304 0 306.666667l0 512C0 872 58.933333 930.666667 112 930.666667l832 0c53.066667 0 80.266667-58.933333 80.266667-112L1024.266667 306.666667C1024.266667 303.733333 1022.133333 302.666667 1021.866667 300zM928 290.666667l16 0c0.266667 0 0.266667 0 0.533333 0L512 635.466667 81.333333 292C91.2 290.133333 103.2 290.666667 112 290.666667L928 290.666667zM944 866.666667 112 866.666667c-17.6 0-48-30.133333-48-48l0-458.666667 427.2 341.333333C497.066667 706.666667 504.533333 709.333333 512 709.333333c7.466667 0 14.933333-2.666667 21.066667-7.733333l427.2-341.333333 0 458.666667C960.266667 836.533333 961.6 866.666667 944 866.666667z" p-id="4296" fill="#FF5011"></path></svg>