<?xml version="1.0" standalone="no"?><!DOCTYPE svg PUBLIC "-//W3C//DTD SVG 1.1//EN" "http://www.w3.org/Graphics/SVG/1.1/DTD/svg11.dtd"><svg t="1480739401964" class="icon" style="" viewBox="0 0 1024 1024" version="1.1" xmlns="http://www.w3.org/2000/svg" p-id="4132" xmlns:xlink="http://www.w3.org/1999/xlink" width="200" height="200"><defs><style type="text/css"></style></defs><path d="M737.622186 60.385807 966.883556 138.455217l0 304.828919-90.806152-39.972902L796.30218 368.285191 796.30218 455.395413l0 454.883669c0 33.49081-34.229996 56.860459-64.991504 56.860459L292.689097 967.139541C261.927589 967.139541 227.697593 943.769893 227.697593 910.279083L227.697593 455.395413 227.697593 368.114609l-79.832084 35.253484L57.116217 443.454717 57.116217 138.79638l231.87695-73.804875C289.618632 67.152202 290.244098 69.312899 290.926423 71.530457 299.17119 99.335221 310.486421 137.318008 339.712697 170.410795c46.000111 52.08418 103.656616 78.979177 173.879283 80.059526C628.563827 247.172414 715.162305 173.083236 737.622186 60.385807M731.253815 0c-22.403021 0-42.474763 15.522905-47.478483 38.38081C669.275915 134.986729 599.394411 191.108002 511.999886 193.609862c-47.990227-0.739186-92.000222-18.195347-129.698706-60.840691-27.861625-31.557555-33.831973-72.155922-44.351158-100.756733C329.079791 7.903604 319.299792 0.909767 307.984561 0.909767c-7.619301 0-15.977789 3.184186-25.302904 6.425232l-255.872064 81.424177C11.059245 93.819757 0.255758 109.797546 0.255758 127.936032l0 343.607752C0.255758 483.825643 5.145758 495.311455 13.617966 503.044478 20.213779 509.014826 28.401685 512.255872 36.760173 512.255872c2.388139 0 4.776279-0.284302 7.164418-0.796046L170.837134 455.395413l0 454.883669c0 67.322783 61.352435 113.720917 121.851963 113.720917l438.621578 0C791.753343 1024 853.162638 977.658726 853.162638 910.279083L853.162638 455.395413l126.855683 55.78011c2.445 0.568605 4.889999 0.852907 7.334999 0.852907 8.358487 0 16.489533-3.184186 22.971625-9.211394C1018.854015 494.970293 1023.744014 483.48448 1023.744014 471.316342L1023.744014 127.879172c0.05686-18.195347-10.860348-34.229996-26.610695-39.176856L738.247651 0.511744C735.916372 0.170581 733.585094 0 731.253815 0L731.253815 0z" p-id="4133" fill="#73AFE1"></path><path d="M511.999886 569.116331m-56.860459 0a1 1 0 1 0 113.720917 0 1 1 0 1 0-113.720917 0Z" p-id="4134" fill="#73AFE1"></path><path d="M511.999886 398.534955m-56.860459 0a1 1 0 1 0 113.720917 0 1 1 0 1 0-113.720917 0Z" p-id="4135" fill="#73AFE1"></path></svg>