<?xml version="1.0" standalone="no"?><!DOCTYPE svg PUBLIC "-//W3C//DTD SVG 1.1//EN" "http://www.w3.org/Graphics/SVG/1.1/DTD/svg11.dtd"><svg t="1480739471958" class="icon" style="" viewBox="0 0 1024 1024" version="1.1" xmlns="http://www.w3.org/2000/svg" p-id="6106" xmlns:xlink="http://www.w3.org/1999/xlink" width="200" height="200"><defs><style type="text/css"></style></defs><path d="M630.037858 484.23668c44.668339-33.503045 74.452689-89.345887 74.452689-148.906401 0-104.228853-85.621053-189.850929-189.855022-189.850929-104.230899 0-189.850929 85.622076-189.850929 189.850929 0 59.561537 29.77821 115.403357 74.450642 148.906401-119.123075 48.39522-201.02134 160.072719-201.02134 294.084898l0 63.285349c0 18.612916 14.893198 33.502022 33.507138 33.502022l573.280692 0c18.611893 0 33.502022-14.889105 33.502022-33.502022l0-63.285349C831.060221 648.033209 745.440192 532.6319 630.037858 484.23668L630.037858 484.23668 630.037858 484.23668 630.037858 484.23668zM384.346133 335.330278c0-70.727855 55.837726-126.565581 126.570697-126.565581 70.725808 0 126.564557 55.837726 126.564557 126.565581 0 70.731948-55.837726 126.570697-126.564557 126.570697C440.183859 461.900975 384.346133 406.061203 384.346133 335.330278L384.346133 335.330278 384.346133 335.330278 384.346133 335.330278zM767.774873 811.827693 254.052648 811.827693l0-33.506115c0-141.458779 115.40438-253.136278 256.865205-253.136278 141.458779 0 256.858042 115.400287 256.858042 253.136278L767.775896 811.827693 767.774873 811.827693 767.774873 811.827693 767.774873 811.827693zM272.668635 514.020006l7.443529 0c14.889105-3.723811 22.335704-14.894222 22.335704-29.783327 0-14.889105-7.446599-26.060539-22.335704-29.779234-33.503045-14.893198-55.839773-48.39522-55.839773-85.621053 0-44.671409 26.060539-78.17343 67.00916-93.066629 7.442506-22.332634 18.611893-40.944528 29.779234-55.838749 0-3.723811 3.723811-7.442506 7.446599-11.165294l-7.446599 0c-89.340771 0-160.072719 70.727855-160.072719 160.071695 0 40.949644 14.888082 78.174454 40.948621 107.953687C120.039445 517.738701 64.201719 603.358731 64.201719 700.147124l0 48.39522c0 18.612916 14.889105 33.502022 33.503045 33.502022l55.841819 0c0-22.335704 3.719718-44.671409 7.442506-63.285349l-33.503045 0 0-18.611893C127.486044 610.806353 187.048605 536.350594 272.668635 514.020006L272.668635 514.020006 272.668635 514.020006 272.668635 514.020006zM819.889811 473.070362c26.060539-29.783327 40.949644-67.00916 40.949644-107.957781 0-85.62003-70.726831-160.071695-160.071695-160.071695l-7.446599 0c3.723811 7.446599 7.446599 11.165294 7.446599 14.889105 11.17041 18.612916 22.334681 37.22481 29.782304 55.838749 37.225833 11.17041 67.005067 48.39522 67.005067 89.343841 0 37.22481-22.336728 70.727855-55.837726 85.621053-11.167341 3.723811-22.337751 14.890128-22.337751 29.779234s11.17041 26.058492 22.337751 29.782304l7.446599 0c85.61696 22.336728 145.178497 96.78737 145.178497 182.408423l0 18.612916-33.503045 0c3.723811 22.335704 7.446599 40.948621 7.446599 63.280232l55.837726 0c18.612916 0 33.502022-14.889105 33.502022-33.502022l0-48.391127C957.625802 603.358731 901.788076 517.738701 819.889811 473.070362L819.889811 473.070362 819.889811 473.070362 819.889811 473.070362zM819.889811 473.070362" p-id="6107" fill="#73AFE1"></path></svg>