<?xml version="1.0" standalone="no"?><!DOCTYPE svg PUBLIC "-//W3C//DTD SVG 1.1//EN" "http://www.w3.org/Graphics/SVG/1.1/DTD/svg11.dtd"><svg t="1480739271619" class="icon" style="" viewBox="0 0 1024 1024" version="1.1" xmlns="http://www.w3.org/2000/svg" p-id="1799" xmlns:xlink="http://www.w3.org/1999/xlink" width="200" height="200"><defs><style type="text/css"></style></defs><path d="M950.336 562.176c1.173333 3.029333 1.834667 6.272 1.834667 9.706667L952.170667 938.24c0 46.016-46.378667 80.426667-87.786667 80.426667L644.8 1018.666667 381.376 1018.666667 161.813333 1018.666667c-41.450667 0-87.808-34.389333-87.808-80.426667L74.005333 571.882667c0-3.434667 0.682667-6.677333 1.834667-9.706667-45.589333-52.48-72.085333-139.882667-72.085333-204.757333L214.528 0l597.141333 0 210.752 357.418667C1022.421333 422.293333 995.925333 509.674667 950.336 562.176L950.336 562.176zM126.72 938.24c0 12.501333 18.666667 26.816 35.114667 26.816l702.549333 0c16.426667 0 35.114667-14.314667 35.114667-26.816L899.498667 600.661333c-11.114667 4.48-22.826667 6.933333-35.114667 6.933333-97.002667 0-175.616-44.266667-175.616-142.954667 0 98.688-78.677333 143.530667-175.658667 143.530667-97.002667 0-175.637333-44.842667-175.637333-143.530667 0 98.688-78.634667 142.954667-175.637333 142.954667-12.309333 0-24-2.453333-35.114667-6.933333L126.72 938.24 126.72 938.24zM781.824 53.610667 776.533333 53.610667 244.373333 53.610667 56.896 371.477333c5.290667 81.984 54.592 182.506667 104.917333 182.506667 45.930667 0 122.944-11.584 122.944-89.344 0-29.610667 23.594667-53.610667 52.693333-53.610667s52.693333 24 52.693333 53.610667c0 78.229333 77.034667 89.92 122.944 89.92 45.909333 0 122.944-11.690667 122.944-89.92 0-29.610667 23.573333-53.610667 52.714667-53.610667 29.077333 0 52.672 24 52.672 53.610667 0 77.76 77.034667 89.344 122.965333 89.344 50.325333 0 99.626667-100.522667 104.874667-182.506667L781.824 53.610667 781.824 53.610667zM862.208 348.501333 163.989333 348.501333c-14.464 0-26.197333-12.010667-26.197333-26.816 0-14.826667 11.712-26.816 26.197333-26.816l698.218667 0c14.464 0 26.176 11.989333 26.176 26.816C888.384 336.490667 876.672 348.501333 862.208 348.501333L862.208 348.501333zM862.208 348.501333" p-id="1800" fill="#73AFE1"></path></svg>