<?xml version="1.0" standalone="no"?><!DOCTYPE svg PUBLIC "-//W3C//DTD SVG 1.1//EN" "http://www.w3.org/Graphics/SVG/1.1/DTD/svg11.dtd"><svg t="1480769683824" class="icon" style="" viewBox="0 0 1088 1024" version="1.1" xmlns="http://www.w3.org/2000/svg" p-id="9613" xmlns:xlink="http://www.w3.org/1999/xlink" width="212.5" height="200"><defs><style type="text/css"></style></defs><path d="M545.073834 786.302575c-31.912652 0-57.750702-25.843216-57.750702-57.745535 0-31.907486 25.83805-57.750702 57.750702-57.750702 31.903611 0 57.745535 25.843216 57.745535 57.750702C602.819369 760.459359 576.977444 786.302575 545.073834 786.302575L545.073834 786.302575 545.073834 786.302575zM545.073834 613.060803c-15.942764 0-28.879872-25.843216-28.879872-57.750702L487.323132 295.446796c0-31.907486 25.83805-57.750702 57.750702-57.750702 31.903611 0 57.745535 25.843216 57.745535 57.750702l-28.874705 259.863304C573.944664 587.218878 561.007556 613.060803 545.073834 613.060803L545.073834 613.060803 545.073834 613.060803zM545.073834 613.060803" p-id="9614" fill="#EE4531"></path><path d="M1057.072536 511.999981c0-69.106837-13.540306-136.161252-40.247632-199.303277-25.788967-60.972062-62.701574-115.724858-109.713546-162.73683C860.099385 102.949193 805.346589 66.035295 744.374527 40.247619c-63.140733-26.706035-130.196439-40.247632-199.303277-40.247632s-136.161252 13.541597-199.303277 40.247632c-60.972062 25.788967-115.724858 62.701574-162.73683 109.713546C136.020463 196.973138 99.106564 251.724642 73.317597 312.696704c-26.706035 63.140733-40.247632 130.196439-40.247632 199.303277s13.540306 136.162544 40.247632 199.303277c25.788967 60.972062 62.701574 115.724858 109.713546 162.735539 47.010681 47.011972 101.764768 83.925871 162.73683 109.713546 63.140733 26.707326 130.196439 40.247632 199.303277 40.247632s136.162544-13.540306 199.303277-40.247632c2.025298-0.85636 4.011847-1.71272 5.989354-2.56908 25.43764-11.01385 50.232041-23.462716 73.339555-38.855239 8.34273-5.557945 16.573086-11.480133 24.262244-17.814356 12.330035-10.147156 14.174503-28.358047 4.088054-40.766873-10.125199-12.455325-28.427796-14.342417-40.883121-4.21851-5.409406 4.398048-11.064224 8.557143-16.801707 12.465658-55.974691 38.142252-124.282001 60.643985-191.032879 69.853408-19.267456 2.658204-38.810032 4.027346-58.264776 4.027346-121.235012 0-235.213567-47.212177-320.93999-132.937308-85.726423-85.726423-132.937308-199.704978-132.937308-320.93999 0-121.235012 47.210886-235.213567 132.937308-320.93999 85.726423-85.726423 199.704978-132.937308 320.93999-132.937308 121.235012 0 235.213567 47.210886 320.93999 132.937308 85.725131 85.726423 132.937308 199.704978 132.937308 320.93999 0 32.754804-3.484856 64.968409-10.211739 96.248156-0.28287 0.991983-0.520533 2.005923-0.700071 3.044405-0.00775 0.045208-0.090415 0.511491-0.257037 1.361393-5.999687 26.602703-14.356625 52.511793-25.001064 77.457317-0.654864 1.534473-1.208979 2.907491-1.690762 4.168136-2.809326 6.295474-5.876981 12.745945-9.230089 19.280372-7.327497 14.280418-1.692054 31.796404 12.588364 39.125193 4.246926 2.179004 8.779305 3.211027 13.244519 3.211027 10.552733 0 20.73218-5.767191 25.880674-15.799391 27.655393-53.895144 38.487121-102.272384 41.103992-115.511737C1052.913442 587.8957 1057.072536 550.262355 1057.072536 511.999981z" p-id="9615" fill="#EE4531"></path></svg>