<?xml version="1.0" standalone="no"?><!DOCTYPE svg PUBLIC "-//W3C//DTD SVG 1.1//EN" "http://www.w3.org/Graphics/SVG/1.1/DTD/svg11.dtd"><svg t="1480665817467" class="icon" style="" viewBox="0 0 1024 1024" version="1.1" xmlns="http://www.w3.org/2000/svg" p-id="3506" xmlns:xlink="http://www.w3.org/1999/xlink" width="200" height="200"><defs><style type="text/css"></style></defs><path d="M760.672616 62.534242 263.326361 62.534242c-19.780509 0-35.815717 15.783475-35.815717 35.253922l0 828.422649c0 19.470447 16.035208 35.253922 35.815717 35.253922l497.346255 0c19.780509 0 35.815717-15.783475 35.815717-35.253922L796.488333 97.788164C796.488333 78.31874 780.453125 62.534242 760.672616 62.534242zM482.069317 111.140263l59.860343 0c11.019984 0 19.953448 8.933463 19.953448 19.953448 0 11.019984-8.933463 19.953448-19.953448 19.953448l-59.860343 0c-11.019984 0-19.953448-8.933463-19.953448-19.953448C462.115869 120.073726 471.049333 111.140263 482.069317 111.140263zM551.906895 918.487921l-79.81379 0L472.093105 838.674131l79.81379 0L551.906895 918.487921zM736.092801 779.502473c0 19.780509-16.035208 35.815717-35.815717 35.815717L323.722916 815.31819c-19.780509 0-35.815717-16.035208-35.815717-35.815717L287.907199 209.552643c0-19.780509 16.035208-35.815717 35.815717-35.815717l376.554168 0c19.780509 0 35.815717 16.035208 35.815717 35.815717L736.092801 779.502473z" p-id="3507" fill="#3C81F6"></path></svg>