<?xml version="1.0" standalone="no"?><!DOCTYPE svg PUBLIC "-//W3C//DTD SVG 1.1//EN" "http://www.w3.org/Graphics/SVG/1.1/DTD/svg11.dtd"><svg t="1480739375136" class="icon" style="" viewBox="0 0 1024 1024" version="1.1" xmlns="http://www.w3.org/2000/svg" p-id="3364" xmlns:xlink="http://www.w3.org/1999/xlink" width="200" height="200"><defs><style type="text/css"></style></defs><path d="M954.117647 441.176471C954.117647 441.176471 954.117647 441.176471 954.117647 441.176471c-10.588235-15.294118-22.352941-30.588235-34.117647-45.882353 0-1.176471-1.176471-1.176471-1.176471-2.352941l0 0-11.764706-14.117647 0 0c-15.294118-17.647059-30.588235-34.117647-43.529412-47.058824-30.588235-28.235294-44.705882-32.941176-55.294118-32.941176L645.882353 298.823529c-4.705882 0-9.411765 0-12.941176 1.176471l0-71.764706c0-35.294118-28.235294-62.352941-62.352941-62.352941L94.117647 167.058824c-35.294118 0-62.352941 28.235294-62.352941 62.352941l0 495.294118c0 35.294118 28.235294 62.352941 62.352941 62.352941l72.941176 0c11.764706 55.294118 61.176471 95.294118 117.647059 95.294118 56.470588 0 105.882353-40 117.647059-95.294118l168.235294 0c14.117647 0 27.058824-4.705882 37.647059-12.941176 10.588235 8.235294 24.705882 12.941176 37.647059 12.941176l15.294118 0c11.764706 55.294118 61.176471 95.294118 117.647059 95.294118s105.882353-40 117.647059-95.294118l35.294118 0c35.294118 0 62.352941-28.235294 62.352941-62.352941l0-200c0-9.411765-2.352941-22.352941-20-52.941176C968.235294 462.352941 961.176471 451.764706 954.117647 441.176471zM283.529412 832.941176c-38.823529 0-70.588235-31.764706-70.588235-70.588235 0-38.823529 31.764706-70.588235 70.588235-70.588235s70.588235 31.764706 70.588235 70.588235C354.117647 801.176471 322.352941 832.941176 283.529412 832.941176zM582.352941 363.529412l0 361.176471c0 7.058824-5.882353 12.941176-12.941176 12.941176L401.176471 737.647059c-11.764706-54.117647-57.647059-92.941176-114.117647-95.294118 0 0 0 0 0 0l0 0c0 0 0 0 0 0 0 0 0 0 0 0l0 0 0 0 0 0c0 0 0 0 0 0l0 0c0 0 0 0 0 0 0 0 0 0 0 0 0 0 0 0 0 0 0 0 0 0 0 0 0 0 0 0 0 0l0 0c0 0 0 0 0 0 0 0 0 0 0 0 0 0 0 0 0 0 0 0 0 0 0 0l0 0c0 0 0 0 0 0 0 0 0 0 0 0s0 0 0 0c0 0 0 0 0 0s0 0 0 0l0 0 0 0c0 0 0 0 0 0s0 0 0 0c0 0 0 0 0 0 0 0 0 0 0 0 0 0 0 0 0 0 0 0 0 0 0 0 0 0 0 0 0 0l0 0 0 0 0 0 0 0 0 0 0 0 0 0L282.352941 642.352941c0 0 0 0 0 0l0 0c0 0 0 0 0 0l0 0 0 0c0 0 0 0 0 0l0 0 0 0 0 0c0 0 0 0 0 0l0 0 0 0 0 0c0 0 0 0 0 0l0 0c0 0 0 0 0 0l0 0c0 0 0 0 0 0l0 0 0 0c0 0 0 0 0 0l0 0c0 0 0 0 0 0-55.294118 1.176471-102.352941 41.176471-114.117647 95.294118L94.117647 737.647059c-7.058824 0-12.941176-5.882353-12.941176-12.941176L81.176471 229.411765c0-7.058824 5.882353-12.941176 12.941176-12.941176l475.294118 0c7.058824 0 12.941176 5.882353 12.941176 12.941176L582.352941 363.529412zM778.823529 832.941176c-38.823529 0-70.588235-31.764706-70.588235-70.588235 0-38.823529 31.764706-70.588235 70.588235-70.588235 38.823529 0 70.588235 31.764706 70.588235 70.588235C849.411765 801.176471 817.647059 832.941176 778.823529 832.941176zM943.529412 724.705882c0 7.058824-5.882353 12.941176-12.941176 12.941176l-35.294118 0c-10.588235-51.764706-55.294118-90.588235-108.235294-95.294118l0 0c0 0 0 0 0 0s0 0 0 0c0 0 0 0 0 0s0 0 0 0c0 0 0 0 0 0 0 0 0 0-1.176471 0 0 0 0 0 0 0 0 0 0 0 0 0l0 0c0 0 0 0 0 0l0 0 0 0c0 0 0 0 0 0l0 0c0 0 0 0 0 0 0 0 0 0-1.176471 0 0 0 0 0 0 0 0 0 0 0 0 0 0 0 0 0 0 0s0 0 0 0l0 0c0 0 0 0 0 0 0 0 0 0 0 0s0 0 0 0c0 0 0 0 0 0s0 0 0 0 0 0 0 0c0 0 0 0 0 0s0 0 0 0 0 0 0 0 0 0 0 0c0 0 0 0 0 0 0 0 0 0 0 0 0 0 0 0 0 0l0 0c0 0 0 0 0 0l0 0 0 0 0 0c0 0 0 0 0 0 0 0 0 0 0 0 0 0 0 0 0 0s0 0 0 0c0 0 0 0 0 0l0 0 0 0 0 0c0 0 0 0 0 0 0 0 0 0 0 0s0 0 0 0 0 0 0 0 0 0 0 0c0 0 0 0 0 0s0 0 0 0 0 0 0 0c0 0 0 0 0 0s0 0 0 0c0 0 0 0 0 0 0 0 0 0 0 0s0 0 0 0c0 0 0 0 0 0 0 0 0 0 0 0s0 0 0 0c0 0 0 0 0 0 0 0 0 0 0 0 0 0 0 0 0 0s0 0 0 0 0 0 0 0c0 0 0 0 0 0 0 0 0 0 0 0s0 0 0 0 0 0 0 0c0 0 0 0 0 0 0 0 0 0 0 0 0 0 0 0 0 0l0 0 0 0 0 0 0 0 0 0 0 0 0 0 0 0-1.176471 0 0 0 0 0 0 0 0 0c0 0 0 0 0 0l0 0 0 0 0 0c0 0 0 0 0 0l0 0 0 0 0 0 0 0L776.470588 642.352941l0 0 0 0 0 0 0 0c0 0 0 0 0 0l0 0 0 0 0 0 0 0 0 0 0 0 0 0 0 0 0 0 0 0 0 0 0 0 0 0 0 0 0 0 0 0 0 0-1.176471 0 0 0 0 0c0 0 0 0 0 0l0 0c0 0 0 0 0 0l0 0c0 0 0 0 0 0l0 0 0 0 0 0c0 0 0 0 0 0l-1.176471 0 0 0 0 0 0 0-1.176471 0 0 0 0 0 0 0 0 0c0 0 0 0 0 0l0 0 0 0c0 0 0 0 0 0l0 0 0 0 0 0 0 0 0 0 0 0c0 0 0 0 0 0l0 0 0 0c0 0-1.176471 0-1.176471 0-52.941176 4.705882-96.470588 43.529412-107.058824 94.117647l-15.294118 0c-7.058824 0-12.941176-5.882353-12.941176-12.941176l0-361.176471c0-7.058824 5.882353-12.941176 12.941176-12.941176l158.823529 0c2.352941 1.176471 10.588235 5.882353 28.235294 22.352941 1.176471 1.176471 2.352941 2.352941 3.529412 3.529412l-76.470588 0c-35.294118 0-62.352941 28.235294-62.352941 62.352941l0 76.470588c0 35.294118 28.235294 62.352941 62.352941 62.352941l184.705882 0L943.529412 724.705882 943.529412 724.705882zM943.529412 528.235294 760 528.235294c-7.058824 0-12.941176-5.882353-12.941176-12.941176l0-76.470588c0-7.058824 5.882353-12.941176 12.941176-12.941176l121.176471 0c5.882353 7.058824 11.764706 15.294118 17.647059 22.352941 0 0 0 0 0 0 9.411765 12.941176 18.823529 25.882353 25.882353 37.647059l3.529412-2.352941-3.529412 2.352941 7.058824-4.705882 0 0-7.058824 4.705882 3.529412 5.882353c14.117647 23.529412 16.470588 31.764706 16.470588 32.941176L943.529412 528.235294 943.529412 528.235294z" p-id="3365" fill="#73AFE1"></path></svg>