<?xml version="1.0" standalone="no"?><!DOCTYPE svg PUBLIC "-//W3C//DTD SVG 1.1//EN" "http://www.w3.org/Graphics/SVG/1.1/DTD/svg11.dtd"><svg t="1480730389295" class="icon" style="" viewBox="0 0 1024 1024" version="1.1" xmlns="http://www.w3.org/2000/svg" p-id="1804" xmlns:xlink="http://www.w3.org/1999/xlink" width="200" height="200"><defs><style type="text/css"></style></defs><path d="M485.203118 680.222329l430.46525-448.420963c13.990192-14.570857 13.990192-38.210253 0-52.749388l-50.613775-52.782134c-13.990192-14.570857-36.722848-14.570857-50.712016 0L383.908027 574.72253 485.203118 680.222329zM849.834336 847.76416c0 20.563338-16.029725 37.303604-35.815138 37.303604L205.251911 885.067764c-19.785413 0-35.816161-16.740266-35.816161-37.303604L169.435749 176.266539c0-20.626783 16.029725-37.303604 35.816161-37.303604L670.7566 138.962935 670.7566 64.35675 169.436773 64.35675c-39.539102 0-71.598552 33.417087-71.598552 74.606185l0 746.104829c0 41.190121 32.05945 74.575486 71.598552 74.575486l680.397563 0c39.540125 0 71.631299-33.385365 71.631299-74.575486L921.465634 437.392792l-71.631299 0L849.834336 847.76416zM333.261504 627.472941c-27.978338 29.142737-53.302111 102.746082-25.322749 131.890866 27.978338 29.142737 98.670203 2.784416 126.616817-26.359344l25.323773-26.391067L358.585277 601.113597 333.261504 627.472941z" p-id="1805" fill="#FFFFFF"></path></svg>