<?xml version="1.0" standalone="no"?><!DOCTYPE svg PUBLIC "-//W3C//DTD SVG 1.1//EN" "http://www.w3.org/Graphics/SVG/1.1/DTD/svg11.dtd"><svg class="icon" style="" viewBox="0 0 1024 1024" version="1.1" xmlns="http://www.w3.org/2000/svg" p-id="5647" xmlns:xlink="http://www.w3.org/1999/xlink" width="200" height="200"><defs><style type="text/css"><![CDATA[

]]></style></defs><path d="M527.860734 43.837414c-247.538793 0-448.208115 200.669322-448.208115 448.208115 0 247.537769 200.669322 448.208115 448.208115 448.208115 247.537769 0 448.208115-200.670346 448.208115-448.208115C976.068849 244.506736 775.399527 43.837414 527.860734 43.837414zM830.320371 794.504142c-39.289841 39.290865-85.036745 70.134337-135.968741 91.678002-52.721759 22.298865-108.736517 33.605376-166.489872 33.605376S414.091598 908.48101 361.370863 886.182145c-50.933019-21.543665-96.679923-52.387138-135.969764-91.678002-39.289841-39.289841-70.134337-85.036745-91.676979-135.968741-22.299889-52.721759-33.605376-108.736517-33.605376-166.489872s11.30651-113.769137 33.605376-166.489872c21.542642-50.933019 52.387138-96.679923 91.676979-135.969764 39.289841-39.289841 85.036745-70.134337 135.969764-91.676979 52.720735-22.299889 108.736517-33.605376 166.489872-33.605376s113.769137 11.30651 166.489872 33.605376c50.931996 21.542642 96.679923 52.387138 135.968741 91.676979 39.290865 39.289841 70.134337 85.036745 91.678002 135.969764 22.298865 52.720735 33.605376 108.736517 33.605376 166.489872s-11.30651 113.769137-33.605376 166.489872C900.454708 709.46842 869.610212 755.215324 830.320371 794.504142zM460.52821 477.338572c29.600155-17.222243 49.606815-49.211818 49.606815-85.871763 0-54.791907-44.569078-99.373265-99.347682-99.373265-54.793954 0-99.368148 44.581358-99.368148 99.373265 0 36.887119 20.253276 69.067029 50.16861 86.213547-38.569434 18.61394-65.308425 58.009182-65.308425 103.639428 0 63.472614 51.642171 115.127064 115.128087 115.127064 63.48694 0 115.142413-51.65445 115.142413-115.127064C526.545786 535.408129 499.478314 495.825622 460.52821 477.338572zM337.338516 391.46681c0-40.506553 32.952506-73.458035 73.446779-73.458035 40.49325 0 73.432453 32.951483 73.432453 73.458035 0 40.49325-32.93818 73.431429-73.432453 73.431429C370.289999 464.898239 337.338516 431.960059 337.338516 391.46681zM411.404396 670.530596c-49.186236 0-89.212858-40.037878-89.212858-89.210811 0-49.200562 40.025599-89.227184 89.212858-89.227184S500.62851 532.119223 500.62851 581.319785C500.62851 630.492718 460.591655 670.530596 411.404396 670.530596zM700.225407 477.338572c29.611411-17.222243 49.603745-49.211818 49.603745-85.871763 0-54.791907-44.567032-99.373265-99.348706-99.373265-54.791907 0-99.370195 44.581358-99.370195 99.373265 0 36.887119 20.24509 69.080332 50.17168 86.213547-38.559201 18.627243-65.283866 58.009182-65.283866 103.639428 0 63.472614 51.628868 115.127064 115.102505 115.127064 13.476943 0 26.687826-2.330068 39.253002-6.884804 6.716982-2.453888 10.200316-9.870812 7.742335-16.603143-2.440585-6.733355-9.843182-10.199293-16.60212-7.743358-9.717316 3.518127-19.942191 5.313006-30.395264 5.313006-49.173956 0-89.187275-40.037878-89.187275-89.210811 0-49.200562 40.015366-89.227184 89.187275-89.227184 49.200562 0 89.224114 40.026622 89.224114 89.227184 0 10.778484-1.898233 21.307282-5.65479 31.306007-2.506077 6.705726 0.88516 14.172791 7.578606 16.676821 6.681166 2.480494 14.161534-0.860601 16.692171-7.567349 4.845355-12.933567 7.302313-26.524097 7.302313-40.415478C766.24196 535.408129 739.174488 495.813343 700.225407 477.338572zM650.480446 464.898239c-40.504506 0-73.454966-32.93818-73.454966-73.431429 0-40.506553 32.95046-73.458035 73.454966-73.458035 40.494273 0 73.432453 32.951483 73.432453 73.458035C723.911876 431.960059 690.974719 464.898239 650.480446 464.898239z" p-id="5648" fill="#DF2D44"></path></svg>