<?xml version="1.0" standalone="no"?><!DOCTYPE svg PUBLIC "-//W3C//DTD SVG 1.1//EN" "http://www.w3.org/Graphics/SVG/1.1/DTD/svg11.dtd"><svg class="icon" style="" viewBox="0 0 1024 1024" version="1.1" xmlns="http://www.w3.org/2000/svg" p-id="3251" xmlns:xlink="http://www.w3.org/1999/xlink" width="200" height="200"><defs><style type="text/css"><![CDATA[

]]></style></defs><path d="M599.610415 16.704215c0 0-32.253944-17.982854-87.610415-16.574943C456.579533-1.278638 424.325589 16.704215 424.325589 16.704215l0 67.515696 175.284826 0L599.610415 16.704215 599.610415 16.704215 599.610415 16.704215zM839.979091 934.021736c0 0 0-575.003344 0-606.489336 0-31.549989-19.902731-42.04532-19.902731-42.04532L600.506358 109.882275 423.493642 109.882275 203.859644 285.48708c0 0-19.902731 10.495331-19.902731 42.04532 0 31.485993 0 606.489336 0 606.489336S176.277402 1024 274.127164 1024L424.325589 1024c89.146317 0 175.284826 0 175.284826 0l150.262421 0C847.594606 1024 839.979091 934.021736 839.979091 934.021736L839.979091 934.021736zM749.872836 716.051632c0 9.919368-8.31947 17.918858-18.494821 17.918858L597.114574 733.970489c-10.175351 0-18.366829-7.99949-18.366829-17.918858L578.747745 418.66259c0-9.983364 8.191478-17.982854 18.366829-17.982854l134.263441 0c10.175351 0 18.494821 7.99949 18.494821 17.982854L749.872836 716.051632 749.872836 716.051632 749.872836 716.051632z" p-id="3252" fill="#E22A40"></path></svg>