<?xml version="1.0" standalone="no"?><!DOCTYPE svg PUBLIC "-//W3C//DTD SVG 1.1//EN" "http://www.w3.org/Graphics/SVG/1.1/DTD/svg11.dtd"><svg class="icon" style="" viewBox="0 0 1024 1024" version="1.1" xmlns="http://www.w3.org/2000/svg" p-id="4890" xmlns:xlink="http://www.w3.org/1999/xlink" width="200" height="200"><defs><style type="text/css"><![CDATA[

]]></style></defs><path d="M512.01893 1.779421c-282.28432 0-511.110289 228.82597-511.110289 511.110289s228.82597 511.110289 511.110289 511.110289c282.26539 0 511.091359-228.82597 511.091359-511.110289S794.28432 1.779421 512.01893 1.779421zM512 986.139979c-261.366658 0-473.250268-211.88361-473.250268-473.250268 0-261.385588 211.88361-473.250268 473.250268-473.250268 261.385588 0 473.269198 211.88361 473.269198 473.250268C985.269198 774.237439 773.385588 986.139979 512 986.139979zM406.90058 399.309646l0 56.790032c40.207343-16.544829 71.574371-33.108589 94.063223-49.691278l0 269.752653 58.550523 0L559.514327 301.706511l-44.353015 0C502.118534 341.932784 466.037934 374.454542 406.90058 399.309646z" p-id="4891" fill="#DF2D44"></path></svg>