<?xml version="1.0" standalone="no"?><!DOCTYPE svg PUBLIC "-//W3C//DTD SVG 1.1//EN" "http://www.w3.org/Graphics/SVG/1.1/DTD/svg11.dtd"><svg class="icon" style="" viewBox="0 0 1024 1024" version="1.1" xmlns="http://www.w3.org/2000/svg" p-id="1655" xmlns:xlink="http://www.w3.org/1999/xlink" width="200" height="200"><defs><style type="text/css"><![CDATA[

]]></style></defs><path d="M66.109674 714.830545c-0.805342-0.805342-1.531889-1.695618-2.157129-2.654456-3.26844-4.846378-3.87833-11.000542-1.651616-16.390295l77.524654-188.018188-77.392648-177.789219c-2.340301-5.409197-1.815345-11.640108 1.402953-16.570397 3.233648-4.950755 8.741082-7.91732 14.642488-7.91732L155.393139 305.488623c5.079692 0.002047 9.943466 2.393513 13.276375 6.085602l88.754417 103.298668 181.136453 0.00307-99.061157-315.209008c-1.846044-5.344728-0.975211-11.267625 2.308579-15.865339 3.28072-4.570085 8.590656-7.306406 14.233166-7.306406l102.846366 0c5.79089 0.01535 11.18576 2.867304 14.46648 7.633864l219.165582 335.346651 177.567161 0.00307c47.842635-0.051165 89.547479 41.685401 89.562828 89.562828l-0.013303 6.874571c0.016373 23.896246-9.3039 46.370097-26.223245 63.289442-16.919345 16.919345-39.396265 26.242687-63.342654 26.239618L694.351118 605.445252 480.281601 941.207365c-3.233648 4.881171-8.69094 7.79657-14.564717 7.800663l-104.566544-0.00307c-5.590322 0.016373-10.81737-2.669806-14.133905-7.1744-3.28072-4.501524-4.204765-10.339486-2.52552-15.648398l91.115184-312.176952L259.217786 614.005208l-83.656305 99.722212c-3.315512 3.976568-8.231475 6.250354-13.408381 6.250354L78.408791 719.977775C73.794703 719.941959 69.359694 718.079542 66.109674 714.830545L66.109674 714.830545zM66.109674 714.830545" p-id="1656" fill="#E22A40"></path></svg>