<?xml version="1.0" standalone="no"?><!DOCTYPE svg PUBLIC "-//W3C//DTD SVG 1.1//EN" "http://www.w3.org/Graphics/SVG/1.1/DTD/svg11.dtd"><svg class="icon" style="" viewBox="0 0 1024 1024" version="1.1" xmlns="http://www.w3.org/2000/svg" p-id="6408" xmlns:xlink="http://www.w3.org/1999/xlink" width="200" height="200"><defs><style type="text/css"><![CDATA[

]]></style></defs><path d="M756.832 326.703c0-134.905-110.003-244.516-245.888-244.516-135.886 0-245.887 109.611-245.887 244.516C265.057 462 375.06 571.61 510.944 571.61 646.829 571.61 756.832 462 756.832 326.703zM973.506 977.697c0 22.552-18.434 41.572-41.57 41.572-23.138 0-41.962-19.021-41.962-41.572l-0.391-4.117 0.391-4.705c-25.882-182.554-182.946-316.478-374.321-318.829l-4.708 0.391-4.706-0.391c-189.023 2.352-344.714 133.14-373.341 312.359 0.979 3.724 1.763 7.452 1.763 11.176l0 4.117c0 23.14-19.021 41.963-41.962 41.963-23.53 0-42.55-19.021-42.55-41.963l0-0.389-0.979 0 0.39-3.727c0-3.724 0.394-6.862 1.373-10.195 21.767-168.24 134.907-304.124 289.226-362.755-90.199-57.255-148.24-158.434-148.24-273.928 0-178.436 139.611-323.537 318.832-323.537 179.807 0 318.832 145.101 318.832 323.537 0 115.495-58.237 216.673-147.848 273.928 152.943 58.235 265.693 192.749 288.832 359.028 1.373 4.706 2.353 9.216 2.353 13.92L973.506 977.697z" p-id="6409" fill="#E22A40"></path></svg>