<?xml version="1.0" standalone="no"?><!DOCTYPE svg PUBLIC "-//W3C//DTD SVG 1.1//EN" "http://www.w3.org/Graphics/SVG/1.1/DTD/svg11.dtd"><svg t="1480662135764" class="icon" style="" viewBox="0 0 1024 1024" version="1.1" xmlns="http://www.w3.org/2000/svg" p-id="4093" xmlns:xlink="http://www.w3.org/1999/xlink" width="200" height="200"><defs><style type="text/css"></style></defs><path d="M727.294926 189.081403c35.45449 0 65.311495 13.481036 86.342484 38.994106 29.604248 35.928281 40.158628 93.877087 28.251438 155.052378C811.151799 541.025057 576.460616 704.114482 511.274988 746.728022c-65.185628-42.550095-299.815413-205.465558-330.59851-363.600135-11.892865-61.175291-1.352811-119.140471 28.266787-155.067728 21.014616-25.497721 50.870598-38.978756 86.342484-38.978756 13.370519 0 27.652803 1.888 42.455951 5.615904 33.032324 8.305153 107.656929 75.582419 150.080134 120.680547l23.470551 24.948205 23.468504-24.948205c42.424228-45.098127 117.03246-112.375393 150.081157-120.680547C699.642123 190.969403 713.924407 189.081403 727.294926 189.081403M727.294926 156.8667c-15.760962 0-32.546254 2.106987-50.335409 6.590092-57.115835 14.362102-165.66918 129.851417-165.66918 129.851417S402.721643 177.818895 345.604784 163.457816c-17.758456-4.483104-34.574447-6.590092-50.320059-6.590092-112.187105 0-170.576957 107.294678-146.226363 232.411257 38.758746 199.096501 362.231975 395.658272 362.231975 395.658272s323.472206-196.561771 362.231975-395.658272C897.872906 264.161379 839.450309 156.8667 727.294926 156.8667" p-id="4094" fill="#ffffff"></path></svg>