<?xml version="1.0" standalone="no"?><!DOCTYPE svg PUBLIC "-//W3C//DTD SVG 1.1//EN" "http://www.w3.org/Graphics/SVG/1.1/DTD/svg11.dtd"><svg t="1480662459926" class="icon" style="" viewBox="0 0 1024 1024" version="1.1" xmlns="http://www.w3.org/2000/svg" p-id="9684" xmlns:xlink="http://www.w3.org/1999/xlink" width="200" height="200"><defs><style type="text/css"></style></defs><path d="M32.426667 709.973333 145.066667 709.973333 145.066667 1003.52 199.68 1003.52 199.68 709.973333 312.32 709.973333 312.32 662.186667 32.426667 662.186667ZM503.466667 655.36c-51.2 0-95.573333 17.066667-122.88 51.2-27.306667 30.72-40.96 75.093333-40.96 126.293333 0 51.2 13.653333 95.573333 40.96 126.293333 30.72 34.133333 71.68 51.2 122.88 51.2s92.16-17.066667 122.88-51.2c27.306667-30.72 44.373333-75.093333 44.373333-126.293333 0-51.2-13.653333-95.573333-44.373333-126.293333C599.04 672.426667 554.666667 655.36 503.466667 655.36zM585.386667 928.426667c-20.48 23.893333-47.786667 34.133333-81.92 34.133333-34.133333 0-61.44-10.24-81.92-34.133333-17.066667-23.893333-27.306667-54.613333-27.306667-92.16 0-37.546667 10.24-71.68 27.306667-92.16 20.48-23.893333 47.786667-34.133333 81.92-34.133333 34.133333 0 61.44 10.24 81.92 34.133333 20.48 23.893333 27.306667 54.613333 27.306667 95.573333C612.693333 873.813333 605.866667 904.533333 585.386667 928.426667zM865.28 662.186667l-139.946667 0 0 341.333333 54.613333 0 0-129.706667 85.333333 0c81.92 0 126.293333-34.133333 126.293333-105.813333C988.16 696.32 947.2 662.186667 865.28 662.186667zM913.066667 812.373333c-10.24 10.24-30.72 13.653333-54.613333 13.653333l-81.92 0 0-116.053333 81.92 0c23.893333 0 44.373333 3.413333 54.613333 13.653333 10.24 10.24 17.066667 23.893333 17.066667 44.373333C930.133333 788.48 926.72 802.133333 913.066667 812.373333zM527.36 13.653333 237.226667 303.786667 803.84 303.786667Z" p-id="9685" fill="#ffffff"></path></svg>