<?xml version="1.0" standalone="no"?><!DOCTYPE svg PUBLIC "-//W3C//DTD SVG 1.1//EN" "http://www.w3.org/Graphics/SVG/1.1/DTD/svg11.dtd"><svg t="1480663173729" class="icon" style="" viewBox="0 0 1024 1024" version="1.1" xmlns="http://www.w3.org/2000/svg" p-id="1970" xmlns:xlink="http://www.w3.org/1999/xlink" width="200" height="200"><defs><style type="text/css"></style></defs><path d="M973.505546 407.717495c-2.919434-8.994909-10.909737-15.398788-20.323556-16.292202L653.415041 363.000242 533.773829 86.702545C530.015284 78.020525 521.459971 72.40404 511.999607 72.40404s-18.015677 5.616485-21.772929 14.298505l-119.641212 276.297697-299.763071 28.425051c-9.41899 0.893414-17.404121 7.297293-20.328727 16.292202-2.923313 8.994909-0.221091 18.86901 6.874505 25.126788l225.863111 199.162828L239.826354 826.33697c17.336889-7.586909 35.463758-13.319758 53.125172-20.174869L332.600496 628.66101c1.883798-8.442828-0.974869-17.247677-7.465374-22.970182L129.852375 433.495919l259.171556-24.576c8.612202-0.818424 16.09697-6.257778 19.536162-14.197657l103.439515-238.882909 103.439515 238.882909c3.439192 7.939879 10.92396 13.379232 19.534869 14.197657l259.171556 24.576L698.864092 605.692121c-6.490505 5.722505-9.347879 14.526061-7.464081 22.970182l56.753131 254.072242L524.076859 750.263596c-3.727515-2.19798-7.898505-3.299556-12.07596-3.299556s-8.353616 1.101576-12.07596 3.299556L275.847365 882.733253l0.284444-1.272242c-13.271919 9.941333-29.266747 16.315475-43.508364 24.657455-2.468202 1.445495-4.914424 2.924606-7.34901 4.419232-0.210747 0.350384-0.444768 0.69301-0.703354 1.022707-1.73899 2.205737-3.510303 4.386909-5.251879 6.588768l-1.727354 7.730424c-2.060929 9.231515 1.555394 18.808242 9.206949 24.367838 7.656727 5.560889 17.878626 6.040566 26.020202 1.228283l259.181899-153.223758 259.181899 153.223758c3.737859 2.212202 7.908848 3.302141 12.070788 3.302141 4.909253 0 9.808162-1.519192 13.949414-4.530424 7.651556-5.559596 11.273051-15.136323 9.212121-24.367838l-65.64202-293.873778 225.859232-199.162828C973.72793 426.586505 976.430152 416.712404 973.505546 407.717495zM511.999607 746.96404" p-id="1971" fill="#ffffff"></path></svg>