<?xml version="1.0" standalone="no"?><!DOCTYPE svg PUBLIC "-//W3C//DTD SVG 1.1//EN" "http://www.w3.org/Graphics/SVG/1.1/DTD/svg11.dtd"><svg t="1480661981845" class="icon" style="" viewBox="0 0 1024 1024" version="1.1" xmlns="http://www.w3.org/2000/svg" p-id="3077" xmlns:xlink="http://www.w3.org/1999/xlink" width="200" height="200"><defs><style type="text/css"></style></defs><path d="M946.152493 323.456856c-8.748245-26.250874-22.814612-45.817512-41.798988-58.156538l-2.557242-1.662873-2.834558-1.130753c-12.653181-5.060249-24.789593-7.627724-36.07052-7.627724-1.022283 0-2.054799 0.019443-3.066849 0.064468-13.255908 0.557702-26.231431 4.768607-38.604226 12.506848-9.538237 5.952572-16.959254 11.42419-22.666232 16.70138-4.601808 4.246721-8.250918 7.728008-11.133571 10.615779l-2.142803 2.153036-1.688455 2.52245c-0.044002 0.064468-1.076518 1.595334-4.729721 5.979178-15.003715 17.496489-27.055193 30.80868-35.809577 39.561018-8.665357 8.66024-20.87033 19.458167-36.268018 32.091906-13.153578 10.783601-27.125801 18.599613-41.517579 23.224957-15.053857 4.839215-31.879058 7.29208-50.019207 7.29208l-22.433942 0-83.053578 0-80.8197 0-23.416316 0c-14.193257 0-28.345582-2.269693-42.059931-6.753821-15.167444-4.962012-27.64257-10.007935-37.07336-15.003715-5.831822-3.081175-16.125259-9.962909-32.086789-25.239847-17.819854-17.044188-25.638937-25.175379-29.065989-29.000498-5.26798-5.891174-15.146978-17.333784-29.352515-34.008558-8.772804-12.046361-22.178115-22.868847-40.899502-33.04358-12.19474-6.631024-25.055652-9.993608-38.228673-9.993608-12.308327 0-24.710798 2.962471-36.866652 8.80248l-2.28095 1.096984-2.078335 1.451048c-18.520819 12.96529-32.284287 32.659841-40.910759 58.535161-7.636934 22.913872-11.350512 50.375318-11.350512 83.957157l0 2.923586 0 0.977257 0 69.264527 0 171.260525 0 9.759271 0 0.791016 0.038886 0.793062c1.714038 33.441647 10.471492 57.860802 26.780947 74.661444 15.916505 16.400528 37.635155 26.088168 64.544015 28.77844l1.659803 0.167822 1.662873-0.014326c1.88493-0.010233 3.247974-0.064468 4.244674-0.100284 0.577145-0.023536 0.914836-0.033769 1.130753-0.033769 0.305969 0 0.828878 0.020466 1.515516 0.069585l1.027399 0.064468 1.031493 0 687.522596 0 0.973164 0 0.972141-0.060375c0.710175-0.044002 1.293459-0.064468 1.777483-0.064468 0.409322 0 0.814552 0.014326 1.555425 0.039909 1.056052 0.039909 2.364861 0.088004 4.053316 0.088004l0.394996-0.004093 1.436722-0.00614 1.431605-0.138146c27.958772-2.713808 49.925063-12.639878 65.300238-29.489638 15.211447-16.72287 23.427572-40.900525 25.139563-73.944106l0.039909-0.801249 0-0.803295 0-9.755178 0-171.260525L957.500958 412.293137l0-0.977257 0-2.923586C957.504028 374.151445 953.79045 346.370729 946.152493 323.456856L946.152493 323.456856zM926.463058 411.31588l0 0.977257 0 69.264527 0 171.260525 0 9.759271c-1.312902 25.362644-7.010671 43.566238-17.072841 54.627155-10.086729 11.05887-25.205055 17.555841-45.36828 19.516496-0.089028 0-0.172939 0-0.261966 0-2.191922 0-3.574409-0.12996-5.607718-0.12996-1.017166 0-2.197038 0.029676-3.723811 0.12996L166.905846 736.721111c-1.554402-0.104377-2.642177-0.140193-3.574409-0.140193-1.722224 0-2.926656 0.119727-5.604648 0.140193-19.511379-1.956561-34.633798-8.458649-45.36214-19.516496-10.738575-11.060917-16.756639-29.264511-18.055215-54.627155l0-9.759271 0-171.260525L94.309434 412.293137l0-0.977257 0-2.923586c0-59.829644 13.013385-98.853425 39.023782-117.065206 7.962346-3.826142 15.769149-5.736655 23.421432-5.736655 7.969509 0 15.774265 2.079358 23.407106 6.225795 14.959713 8.131191 25.368784 16.420995 31.224142 24.87862 14.954597 17.556864 25.198915 29.427216 30.723745 35.606962 5.529947 6.1777 15.770172 16.417925 30.730908 30.724769 14.959713 14.312984 27.969005 24.39562 39.023782 30.245861 11.06501 5.854335 25.045419 11.541871 41.955554 17.071817 16.905018 5.525853 34.146705 8.29492 51.702546 8.29492l23.416316 0 80.8197 0 83.053578 0 22.433942 0c21.467941 0 41.304731-2.926656 59.518558-8.783037 18.203594-5.851265 35.444257-15.448854 51.706639-28.779464 16.254196-13.33675 29.100782-24.714891 38.530548-34.141588 9.434883-9.43386 21.950941-23.258727 37.557384-41.462321 3.258207-3.904936 5.53404-6.832615 6.833639-8.778944 2.601244-2.606361 6.018064-5.854335 10.239202-9.755178 4.226255-3.90596 10.240225-8.29492 18.051121-13.167904 7.800663-4.88424 15.616676-7.485485 23.412223-7.810896 0.592494-0.024559 1.190105-0.039909 1.797949-0.039909 7.346315 0 15.527648 1.803066 24.547069 5.406127 26.01449 16.909112 39.023782 55.933917 39.023782 117.065206L926.464081 411.31588 926.463058 411.31588zM926.463058 411.31588" p-id="3078" fill="#ffffff"></path></svg>