<?xml version="1.0" standalone="no"?><!DOCTYPE svg PUBLIC "-//W3C//DTD SVG 1.1//EN" "http://www.w3.org/Graphics/SVG/1.1/DTD/svg11.dtd"><svg t="1480662079777" class="icon" style="" viewBox="0 0 1024 1024" version="1.1" xmlns="http://www.w3.org/2000/svg" p-id="3853" xmlns:xlink="http://www.w3.org/1999/xlink" width="200" height="200"><defs><style type="text/css"></style></defs><path d="M787.010471 90.686419l-274.323832 264.24836 0 0-0.008186 0-0.230244 0.185218L238.275825 90.908476c-55.30356-53.384861-133.023666 21.037129-77.637218 74.385151L417.277662 412.58478 258.098289 412.58478c-78.383208 0-78.267575 105.801674 0 105.801674l199.584618 0 0 75.022671L258.098289 593.409125c-78.383208 0-78.267575 105.801674 0 105.801674l199.584618 0 0 194.46297c0 37.808094 27.5341 56.715723 54.994522 56.642045l0 0 0.004093 0 0.004093 0 0 0c27.381627-0.077771 54.764278-18.990516 54.764278-56.642045L567.449893 699.212846l199.815885 0c78.387301 0 78.271668-105.801674 0-105.801674L567.450916 593.411171l0-75.022671 199.815885 0c78.387301 0 78.271668-105.801674 0-105.801674L608.169293 412.586826l256.407788-247.069095C920.190703 112.057145 842.243423 37.413098 787.010471 90.686419z" p-id="3854" fill="#ffffff"></path></svg>