<?xml version="1.0" standalone="no"?><!DOCTYPE svg PUBLIC "-//W3C//DTD SVG 1.1//EN" "http://www.w3.org/Graphics/SVG/1.1/DTD/svg11.dtd"><svg t="1480663276049" class="icon" style="" viewBox="0 0 1087 1024" version="1.1" xmlns="http://www.w3.org/2000/svg" p-id="2738" xmlns:xlink="http://www.w3.org/1999/xlink" width="212.3046875" height="200"><defs><style type="text/css"></style></defs><path d="M543.388341 1023.999996l-12.666757-9.636061L516.267493 1006.359788l-23.07992-15.153483c-112.640887-73.785803-217.782742-163.618756-303.924462-259.551957-37.417445-41.88578-72.15389-88.51188-95.039534-119.906787-107.628581-146.91107-124.530542-327.159802-42.973722-459.033955 55.95132-90.920895 146.289389-146.405954 247.740012-152.078796 116.254409-6.527654 194.741678 38.660808 241.678619 82.139646l6.372234-7.18819 2.681001 3.730088c47.286636-42.352041 124.180846-85.053777 237.87082-78.681544 101.450623 5.672842 191.827547 61.157901 247.856577 152.156506 81.47911 131.874153 64.538293 312.045174-43.090287 459.033955-25.100384 34.425604-58.632321 79.18666-95.078389 119.829077-85.830879 95.70007-190.895025 185.455313-303.885607 259.590812L543.388341 1023.999996zM542.028413 912.136211l3.341537 2.13703c105.841247-69.589454 204.105753-153.633 284.3415-243.155112 33.765067-37.611721 65.509671-80.002617 89.366692-112.718597 85.792024-117.148076 101.139782-257.609203 39.165924-357.933028-40.292721-65.43196-104.325899-105.219566-175.741542-109.260494-107.201175-6.333379-169.058468 44.605636-200.919636 86.802256l-34.075908 45.071897-5.245436-6.139103-4.312914 4.74032-32.987966-43.673114c-31.822313-42.235476-93.485331-93.01907-200.880781-86.802256C232.664239 95.208083 168.669917 135.034543 128.454906 200.349939c-62.090423 100.401535-46.742665 240.823807 38.971649 357.894173 21.836557 29.957269 54.746812 74.096644 89.444402 112.912872 80.158037 89.327837 178.072847 173.060541 283.214703 242.339155L542.028413 912.136211z" p-id="2739" fill="#ffffff"></path></svg>