<?xml version="1.0" standalone="no"?><!DOCTYPE svg PUBLIC "-//W3C//DTD SVG 1.1//EN" "http://www.w3.org/Graphics/SVG/1.1/DTD/svg11.dtd"><svg t="1480662348732" class="icon" style="" viewBox="0 0 1024 1024" version="1.1" xmlns="http://www.w3.org/2000/svg" p-id="8138" xmlns:xlink="http://www.w3.org/1999/xlink" width="200" height="200"><defs><style type="text/css"></style></defs><path d="M896 480c-17.696 0-32 14.304-32 32l0 352c0 35.296-28.704 64-64 64L192 928c-35.296 0-64-28.704-64-64L128 288c0-35.296 28.704-64 64-64l352 0c17.696 0 32-14.304 32-32s-14.304-32-32-32L192 160C121.408 160 64 217.408 64 288l0 576c0 70.592 57.408 128 128 128l608 0c70.592 0 128-57.408 128-128L928 512C928 494.304 913.696 480 896 480zM982.624 201.376l-128-128c-12.512-12.512-32.736-12.512-45.248 0l-512 512c-1.248 1.248-1.824 2.848-2.816 4.256-1.024 1.408-2.368 2.464-3.2 4.064l-96 192c-5.696 11.328-4.096 24.96 4 34.752C205.568 827.872 214.624 832 224 832c2.944 0 5.888-0.416 8.768-1.216l224-64c0.576-0.16 0.96-0.608 1.536-0.768 1.984-0.672 3.712-1.824 5.6-2.912s3.744-2.08 5.312-3.52c0.448-0.416 0.992-0.544 1.408-0.928l512-512C995.136 234.112 995.136 213.888 982.624 201.376zM704 269.248 786.752 352 448 690.752 365.248 608 704 269.248zM328.768 662.016l58.112 58.112-101.76 29.088L328.768 662.016zM832 306.752 749.248 224 832 141.248 914.752 224 832 306.752z" p-id="8139" fill="#ffffff"></path></svg>