<?xml version="1.0" standalone="no"?><!DOCTYPE svg PUBLIC "-//W3C//DTD SVG 1.1//EN" "http://www.w3.org/Graphics/SVG/1.1/DTD/svg11.dtd"><svg t="1480662279971" class="icon" style="" viewBox="0 0 1024 1024" version="1.1" xmlns="http://www.w3.org/2000/svg" p-id="7366" xmlns:xlink="http://www.w3.org/1999/xlink" width="200" height="200"><defs><style type="text/css"></style></defs><path d="M504.725333 967.445333c-248.96 0-451.52-202.56-451.52-451.52S255.765333 64.405333 504.725333 64.405333s451.52 202.56 451.52 451.52S753.706667 967.445333 504.725333 967.445333zM504.725333 107.072c-225.450667 0-408.853333 183.402667-408.853333 408.853333s183.402667 408.853333 408.853333 408.853333 408.853333-183.402667 408.853333-408.853333S730.176 107.072 504.725333 107.072zM202.389333 398.634667c-28.330667 85.269333-22.570667 171.648 14.485333 253.12 12.757333 28.010667 53.952 3.690667 41.28-24.149333-31.744-69.781333-33.728-143.765333-9.642667-216.256C258.197333 382.016 212.032 369.536 202.389333 398.634667M531.605333 521.856c0 14.848-12.053333 26.88-26.88 26.88s-26.88-12.053333-26.88-26.88L477.845333 324.693333c0-14.826667 12.053333-26.88 26.88-26.88s26.88 12.053333 26.88 26.88L531.605333 521.856zM494.357333 544.896c-13.696-5.738667-20.181333-21.482667-14.442667-35.178667 5.717333-13.696 21.461333-20.16 35.178667-14.442667l181.888 76.032c13.717333 5.738667 20.16 21.482667 14.464 35.178667-5.738667 13.696-21.482667 20.16-35.178667 14.442667L494.357333 544.896z" p-id="7367" fill="#ffffff"></path></svg>