<?xml version="1.0" standalone="no"?><!DOCTYPE svg PUBLIC "-//W3C//DTD SVG 1.1//EN" "http://www.w3.org/Graphics/SVG/1.1/DTD/svg11.dtd"><svg class="icon" style="" viewBox="0 0 1024 1024" version="1.1" xmlns="http://www.w3.org/2000/svg" p-id="7752" xmlns:xlink="http://www.w3.org/1999/xlink" width="200" height="200"><defs><style type="text/css"><![CDATA[

]]></style></defs><path d="M511.999998 0c-282.757922 0-511.978511 229.220588-511.978511 511.978511s229.220588 511.978511 511.978511 511.978511 511.978511-229.220588 511.978511-511.978511S794.75792 0 511.999998 0zM388.009056 780.958638c-28.54001 0-51.676963-23.136953-51.676963-51.676963s23.136953-51.676963 51.676963-51.676963 51.676963 23.136953 51.676963 51.676963S416.549066 780.958638 388.009056 780.958638zM602.633205 780.958638c-28.54001 0-51.676963-23.136953-51.676963-51.676963s23.136953-51.676963 51.676963-51.676963 51.676963 23.136953 51.676963 51.676963S631.174238 780.958638 602.633205 780.958638zM843.890944 316.377624c-10.488889 0-113.585965 0-113.585965 0l-112.563682 319.271534-0.148379-0.168846c0.016373 0.058328 0.030699 0.110517 0.047072 0.168846L296.630882 635.649158c-7.968485 0-14.428617-9.162684-14.428617-20.466124l0-28.668946c0-11.30344 6.460132-20.466124 14.428617-20.466124l280.383852 0 13.19451-37.845956L247.961416 528.202007c-9.970072 0-18.053168-9.162684-18.053168-20.466124l0-28.668946c0-11.30344 8.083096-20.466124 18.053168-20.466124l366.512465 0 12.124132-34.776038L232.978167 423.824775c-11.30344 0-20.466124-9.162684-20.466124-20.466124l0-28.668946c0-11.30344 9.162684-20.466124 20.466124-20.466124l417.883459 0 37.059034-106.301048c0 0 99.689467 0 111.969141 0C825.471432 247.048629 865.636201 300.516378 843.890944 316.377624z" p-id="7753" fill="#2c2c2c"></path></svg>