<?xml version="1.0" standalone="no"?><!DOCTYPE svg PUBLIC "-//W3C//DTD SVG 1.1//EN" "http://www.w3.org/Graphics/SVG/1.1/DTD/svg11.dtd"><svg t="1480858702772" class="icon" style="" viewBox="0 0 1024 1024" version="1.1" xmlns="http://www.w3.org/2000/svg" p-id="7658" xmlns:xlink="http://www.w3.org/1999/xlink" width="200" height="200"><defs><style type="text/css"></style></defs><path d="M891.113472 210.67776c16.929792 0 30.11584 2.491392 39.4496 7.468032 9.455616 4.97664 16.054272 11.071488 20.03968 18.418688 3.976192 7.340032 5.726208 15.05792 5.470208 23.395328-0.36352 8.337408-1.36192 15.434752-3.231744 21.402624l-11.328512 36.842496c-5.72416 18.540544-12.32384 38.951936-19.529728 61.229056-7.220224 22.27712-14.317568 44.306432-21.29408 66.20672-6.964224 21.906432-12.311552 39.200768-15.920128 51.774464-7.839744 26.50624-17.928192 44.925952-29.996032 55.256064s-27.003904 15.427584-44.55424 15.427584L779.348992 568.098816l-58.9824 0-77.284352 0-84.381696 0L333.449216 568.098816l13.56288 89.608192 457.859072 0c28.997632 0 43.557888 13.563904 43.557888 40.823808 0 13.314048-2.868224 24.764416-8.592384 34.345984-5.846016 9.583616-17.173504 14.4384-34.10432 14.4384l-43.557888 0-84.501504 0L573.261824 747.3152 466.978816 747.3152l-87.237632 0-49.901568 0c-12.201984 0-22.27712-2.988032-30.492672-8.962048s-14.937088-13.811712-20.417536-23.396352c-5.469184-9.583616-9.832448-20.035584-13.187072-31.362048-3.3536-11.328512-5.844992-21.907456-7.716864-31.860736-0.61952-3.980288-2.236416-13.56288-4.970496-28.870656l-9.965568-57.247744-13.186048-76.664832-14.560256-85.123072c-11.449344-67.081216-24.513536-141.75232-39.08608-224.013312l-68.072448 0c-9.07776 0-16.673792-2.491392-22.774784-7.468032-5.967872-4.97664-10.950656-10.949632-14.937088-17.92-3.974144-6.970368-6.720512-14.4384-8.204288-22.40512-1.49504-7.960576-2.24768-15.301632-2.24768-21.901312 0-13.314048 4.108288-24.270848 12.32384-32.857088 8.093696-8.58624 19.166208-12.94336 33.10592-12.94336l20.040704 0 18.035712 0 22.774784 0 30.869504 0c12.068864 0 21.779456 1.992704 29.120512 5.972992 7.2192 3.986432 12.944384 8.963072 17.173504 14.937088 4.22912 5.972992 7.341056 12.32384 9.091072 18.917376l4.593664 16.923648c1.130496 5.353472 2.369536 12.821504 3.6096 22.40512l3.608576 29.369344c1.871872 11.947008 3.6096 24.513536 5.481472 37.833728L891.113472 210.678784zM738.537472 776.187904c11.44832 0 22.519808 2.364416 33.10592 6.970368 10.573824 4.605952 19.663872 11.077632 27.247616 19.414016 7.596032 8.338432 13.698048 18.041856 18.169856 29.370368 4.605952 11.326464 6.842368 23.274496 6.842368 35.84 0 12.573696-2.236416 24.51968-6.842368 35.842048-4.471808 11.326464-10.573824 21.036032-18.169856 29.374464-7.583744 8.338432-16.673792 14.92992-27.247616 19.913728-10.586112 4.975616-21.6576 7.461888-33.10592 7.461888-11.582464 0-22.397952-2.486272-32.730112-7.461888-10.330112-4.983808-19.166208-11.57632-26.76224-19.913728s-13.683712-18.048-18.167808-29.374464c-4.608-11.322368-6.844416-23.268352-6.844416-35.842048 0-12.565504 2.236416-24.513536 6.844416-35.84 4.484096-11.328512 10.571776-21.031936 18.167808-29.370368 7.596032-8.336384 16.432128-14.808064 26.76224-19.414016C716.13952 778.55232 726.955008 776.187904 738.537472 776.187904M360.696832 774.194176c11.449344 0 22.398976 2.364416 32.608256 6.970368 10.330112 4.605952 19.408896 11.077632 27.259904 19.416064 7.960576 8.336384 13.928448 18.048 18.169856 29.36832 4.22912 11.328512 6.34368 23.274496 6.34368 35.848192 0 12.565504-2.11456 24.513536-6.34368 35.84-4.242432 11.322368-10.20928 21.031936-18.169856 29.370368-7.851008 8.336384-16.929792 14.936064-27.259904 19.91168-10.20928 4.977664-21.158912 7.468032-32.608256 7.468032-12.189696 0-23.15264-2.490368-33.227776-7.468032-9.954304-4.975616-18.911232-11.57632-26.76224-19.91168-7.83872-8.338432-13.928448-18.048-18.168832-29.370368-4.230144-11.326464-6.344704-23.274496-6.344704-35.84 0-12.573696 2.11456-24.51968 6.344704-35.848192 4.241408-11.32032 10.330112-21.031936 18.168832-29.36832 7.851008-8.338432 16.807936-14.810112 26.76224-19.416064C337.544192 776.558592 348.507136 774.194176 360.696832 774.194176" p-id="7659" fill="#FF5011"></path></svg>